<?xml version="1.0" standalone="no"?>
<!DOCTYPE svg PUBLIC "-//W3C//DTD SVG 20010904//EN"
 "http://www.w3.org/TR/2001/REC-SVG-20010904/DTD/svg10.dtd">
<svg version="1.0" xmlns="http://www.w3.org/2000/svg"
 width="1024.000000pt" height="1024.000000pt" viewBox="0 0 1024.000000 1024.000000"
 preserveAspectRatio="xMidYMid meet">
<metadata>
Created by potrace 1.16, written by Peter Selinger 2001-2019
</metadata>
<g transform="translate(0.000000,1024.000000) scale(0.100000,-0.100000)"
fill="#000000" stroke="none">
<path d="M2840 7798 c-19 -7 -58 -35 -86 -63 -54 -53 -74 -104 -74 -185 0 -33
59 -445 100 -695 5 -33 19 -123 30 -200 12 -77 32 -205 45 -285 13 -80 31
-199 40 -265 l17 -120 -55 -165 c-108 -322 -147 -641 -117 -965 6 -60 15 -134
21 -164 6 -29 7 -57 2 -62 -4 -4 -51 -15 -103 -23 -130 -22 -134 -26 -125
-150 11 -141 9 -140 183 -144 l139 -3 33 -87 c18 -48 53 -129 76 -181 24 -51
41 -97 38 -102 -3 -5 -24 -19 -47 -30 -89 -46 -247 -152 -252 -170 -8 -23 45
-142 77 -176 12 -13 32 -23 45 -23 13 0 92 25 176 56 84 31 161 58 172 61 16
3 34 -12 78 -69 195 -246 482 -480 772 -628 235 -120 415 -180 701 -231 164
-30 569 -33 748 -6 588 89 1127 394 1493 845 42 50 79 92 84 92 5 0 80 -27
168 -60 88 -33 169 -60 181 -60 37 0 58 19 95 84 33 60 43 108 27 131 -8 12
-161 109 -239 151 -29 16 -53 32 -53 36 0 4 26 65 58 135 33 70 67 152 76 181
l18 52 117 0 c133 0 173 10 190 46 15 34 14 196 -1 216 -8 10 -51 22 -115 33
-62 11 -103 23 -103 30 0 6 7 61 16 121 25 165 23 480 -4 655 -25 163 -68 328
-121 473 -22 58 -38 112 -36 119 3 7 18 102 34 212 16 110 48 319 71 465 23
146 52 337 65 425 13 88 33 220 45 294 11 73 20 146 20 160 0 49 -30 131 -62
167 -52 59 -101 79 -193 79 l-80 -1 -360 -153 c-346 -147 -660 -280 -811 -343
l-72 -29 -111 35 c-285 90 -499 120 -811 113 -289 -6 -432 -29 -697 -114
l-113 -35 -117 50 c-145 62 -220 93 -443 187 -96 40 -229 97 -295 125 -350
152 -377 162 -450 166 -38 2 -86 -2 -105 -8z m695 -580 c77 -32 179 -75 228
-95 48 -19 87 -38 87 -43 0 -4 -26 -24 -57 -45 -180 -119 -453 -372 -559 -518
-59 -83 -48 -112 -104 268 -23 154 -54 360 -69 458 -15 97 -26 179 -24 181 3
3 114 -43 498 -206z m3651 96 c-9 -60 -38 -257 -66 -439 -28 -181 -53 -349
-57 -372 -3 -24 -8 -43 -12 -43 -3 1 -31 33 -61 72 -125 161 -361 381 -537
500 l-78 52 40 17 c22 9 90 37 150 62 61 25 227 95 370 155 143 60 261 107
263 106 2 -1 -4 -51 -12 -110z m-1821 -215 c687 -86 1277 -500 1595 -1119 133
-260 221 -623 220 -911 -1 -163 -40 -426 -64 -435 -6 -2 -92 -10 -191 -19
-329 -27 -497 -48 -511 -63 -9 -8 -14 -36 -14 -72 0 -63 13 -87 53 -94 38 -7
525 -55 564 -56 l23 0 -20 -50 c-37 -94 -100 -210 -114 -210 -18 0 -143 34
-354 95 l-163 48 -27 -20 c-33 -24 -57 -83 -48 -117 4 -18 26 -36 74 -62 37
-21 99 -56 137 -79 39 -23 103 -61 143 -84 l73 -42 -31 -39 c-265 -335 -702
-606 -1130 -700 -235 -52 -520 -65 -741 -34 -323 45 -643 172 -911 362 -150
106 -449 398 -427 416 2 1 93 54 203 116 109 63 205 124 213 137 14 21 14 28
-2 68 -20 54 -54 75 -105 65 -19 -4 -122 -33 -229 -64 -107 -30 -209 -58 -227
-62 l-34 -6 -60 123 c-33 68 -60 127 -60 130 0 3 133 18 296 34 345 34 344 33
344 119 0 29 -6 60 -13 71 -18 24 -15 24 -653 81 l-61 5 -16 77 c-91 433 -4
955 225 1355 163 283 413 549 679 722 109 71 285 158 423 208 173 64 330 97
581 121 58 6 266 -3 360 -15z"/>
<path d="M4060 5431 c-79 -25 -123 -68 -157 -151 -14 -35 -18 -71 -18 -165 0
-104 4 -127 24 -173 27 -59 85 -115 139 -133 51 -17 125 -6 171 24 87 58 121
139 121 293 0 151 -40 238 -132 285 -44 23 -112 32 -148 20z"/>
<path d="M6071 5430 c-54 -13 -113 -61 -140 -115 -24 -46 -26 -59 -26 -195 0
-136 2 -149 25 -195 49 -95 162 -146 254 -115 48 16 100 61 131 115 50 85 53
291 5 384 -45 89 -157 144 -249 121z"/>
<path d="M4964 4710 c-92 -10 -176 -35 -198 -59 -20 -22 -31 -79 -22 -115 9
-36 97 -117 172 -159 37 -20 71 -37 75 -37 5 0 9 -24 9 -53 0 -45 -6 -63 -38
-113 -61 -93 -124 -137 -241 -166 -58 -14 -81 -33 -81 -70 0 -63 47 -118 102
-118 49 0 147 33 216 72 54 31 152 120 152 139 0 6 26 -16 58 -48 96 -96 227
-162 324 -163 39 0 50 4 67 26 12 15 26 43 32 64 15 51 0 76 -54 90 -140 36
-193 72 -259 174 -32 49 -38 67 -37 110 l0 51 62 30 c72 35 182 137 192 177
16 63 -30 128 -103 147 -105 29 -276 37 -428 21z"/>
</g>
</svg>
